<svg width="485.30003662109374px" height="189.2px" xmlns="http://www.w3.org/2000/svg" viewBox="7.349981689453131 -19.599999999999994 485.30003662109374 189.2" style="background: rgba(0, 0, 0, 0);" preserveAspectRatio="xMidYMid"><defs><linearGradient id="editing-shiny-gradient" x1="0.04322727117869957" x2="0.9567727288213004" y1="0.2966316784620999" y2="0.7033683215379001" gradientUnits="objectBoundingBox"><stop offset="0.0" stop-color="#ffb200"></stop><stop offset="0.5" stop-color="#e10057"></stop><stop offset="1.0" stop-color="#5A1A80"></stop></linearGradient><linearGradient id="editing-shiny-gradient2" x1="0" x2="0" y1="0" y2="1"><stop offset="0.2" stop-color="#fff" stop-opacity="0.8"></stop><stop offset="0.8" stop-color="#fff" stop-opacity="0"></stop></linearGradient><filter id="editing-shiny2" x="-100%" y="-100%" width="300%" height="300%"><feMorphology operator="erode" radius="2"></feMorphology></filter><filter id="editing-shiny" x="-100%" y="-100%" width="300%" height="300%"><feFlood flood-color="#fff" result="flood"></feFlood><feConvolveMatrix in="SourceGraphic" result="conv" order="8,8" divisor="1" kernelMatrix="0 0 0 0 0 0 0 0 0 0 0 1 1 0 0 0 0 0 0 1 1 0 0 0 0 0 1 0 0 1 0 0 0 0 1 0 0 1 0 0 0 1 0 0 0 0 1 0 0 1 1 0 0 1 1 0 0 0 0 1 1 0 0 0 "></feConvolveMatrix><feOffset dx="0" dy="4" in="conv" result="offset"></feOffset><feComposite operator="in" in="flood" in2="offset" result="comp"></feComposite><feGaussianBlur in="offset" stdDeviation="3" result="shadow"></feGaussianBlur><feColorMatrix in="shadow" type="matrix" values="0.7 0 0 0 0  0 0.7 0 0 0  0 0 0.7 0 0  0 0 0 0.3 0" result="dark-shadow"></feColorMatrix><feOffset dx="0" dy="4" in="dark-shadow" result="offset-shadow"></feOffset><feOffset dx="0" dy="2" in="conv" result="offset-2"></feOffset><feComposite operator="out" in="offset" in2="offset-2" result="edge-diff"></feComposite><feGaussianBlur in="edge-diff" stdDeviation="1" result="edge-blur"></feGaussianBlur><feColorMatrix in="edge-blur" result="edge-shadow" type="matrix" values="0 0 0 0 0  0 0 0 0 0  0 0 0 0 0  0 0 0 0.5 0"></feColorMatrix><feComposite operator="in" in="edge-shadow" in2="offset" result="edge-shadow-in"></feComposite><feOffset dx="0" dy="1" in="edge-shadow-in" result="edge-shadow-final"></feOffset><feMerge result="out"><feMergeNode in="offset-shadow"></feMergeNode><feMergeNode in="comp"></feMergeNode><feMergeNode in="edge-shadow-final"></feMergeNode><feMergeNode in="SourceGraphic"></feMergeNode></feMerge></filter></defs><g filter="url(#editing-shiny)"><g transform="translate(78.34998035430908, 114.23500156402588)"><path d="M21.12-32.58L21.12-32.58Q24.58-32.58 26.88-30.72L26.88-30.72L26.88-30.72Q29.18-28.86 29.18-25.22L29.18-25.22L29.18-25.22Q29.18-22.27 26.02-18.66L26.02-18.66L26.02-18.66Q22.85-15.04 18.59-12.03L18.59-12.03L18.59-12.03Q14.34-9.02 11.33-7.81L11.33-7.81L11.33-7.81Q12.93-5.25 14.98-4.26L14.98-4.26L14.98-4.26Q17.02-3.26 19.78-3.26L19.78-3.26L19.78-3.26Q22.85-3.26 25.89-4.83L25.89-4.83L25.89-4.83Q28.93-6.40 30.91-8.90L30.91-8.90L31.68-7.55L31.68-7.55Q28.54-3.52 25.02-1.38L25.02-1.38L25.02-1.38Q21.50 0.77 16.38 0.77L16.38 0.77L16.38 0.77Q12.48 0.77 9.41-1.15L9.41-1.15L9.41-1.15Q6.34-3.07 4.61-6.30L4.61-6.30L4.61-6.30Q2.88-9.54 2.88-13.31L2.88-13.31L2.88-13.31Q2.88-18.05 5.44-22.53L5.44-22.53L5.44-22.53Q8-27.01 12.22-29.79L12.22-29.79L12.22-29.79Q16.45-32.58 21.12-32.58L21.12-32.58ZM17.79-28.54L17.79-28.54Q14.98-28.54 12.77-26.75L12.77-26.75L12.77-26.75Q10.56-24.96 9.31-22.14L9.31-22.14L9.31-22.14Q8.06-19.33 8.06-16.32L8.06-16.32L8.06-16.32Q8.06-12.35 9.92-9.54L9.92-9.54L9.92-9.54Q12.61-10.75 15.74-13.22L15.74-13.22L15.74-13.22Q18.88-15.68 21.06-18.56L21.06-18.56L21.06-18.56Q23.23-21.44 23.23-23.81L23.23-23.81L23.23-23.81Q23.23-28.54 17.79-28.54L17.79-28.54ZM45.06-59.14L45.06-5.38L45.06-5.38Q45.06-4.61 45.50-3.90L45.50-3.90L45.50-3.90Q45.95-3.20 47.04-3.20L47.04-3.20L47.04-3.20Q47.94-3.20 48.93-4L48.93-4L48.93-4Q49.92-4.80 50.43-5.70L50.43-5.70L51.52-4.74L51.52-4.74Q50.43-2.62 48.51-1.15L48.51-1.15L48.51-1.15Q46.59 0.32 44.67 0.32L44.67 0.32L44.67 0.32Q39.30 0.32 39.30-6.14L39.30-6.14L39.30-56.70L45.06-59.14ZM83.01-59.14L83.01-5.70L83.01-5.70Q83.01-4.80 83.42-4.06L83.42-4.06L83.42-4.06Q83.84-3.33 84.74-3.33L84.74-3.33L84.74-3.33Q85.63-3.33 86.53-4.13L86.53-4.13L86.53-4.13Q87.42-4.93 87.87-5.89L87.87-5.89L89.09-4.86L89.09-4.86Q88.06-2.69 86.18-1.18L86.18-1.18L86.18-1.18Q84.29 0.32 82.50 0.32L82.50 0.32L82.50 0.32Q79.55 0.32 78.21-1.34L78.21-1.34L78.21-1.34Q76.86-3.01 76.93-7.10L76.93-7.10L76.67-7.10L76.67-7.10Q72.77 0.77 67.14 0.77L67.14 0.77L67.14 0.77Q61.57 0.77 58.59-3.10L58.59-3.10L58.59-3.10Q55.62-6.98 55.62-12.80L55.62-12.80L55.62-12.80Q55.62-17.41 57.60-21.95L57.60-21.95L57.60-21.95Q59.58-26.50 63.26-29.44L63.26-29.44L63.26-29.44Q66.94-32.38 71.74-32.38L71.74-32.38L71.74-32.38Q74.75-32.38 76.99-30.85L76.99-30.85L76.99-56.70L83.01-59.14ZM71.36-28.61L71.36-28.61Q67.78-28.61 65.44-26.37L65.44-26.37L65.44-26.37Q63.10-24.13 62.02-20.96L62.02-20.96L62.02-20.96Q60.93-17.79 60.93-15.04L60.93-15.04L60.93-15.04Q60.93-12.86 61.70-10.24L61.70-10.24L61.70-10.24Q62.46-7.62 64.19-5.73L64.19-5.73L64.19-5.73Q65.92-3.84 68.61-3.84L68.61-3.84L68.61-3.84Q73.47-3.84 75.23-8.03L75.23-8.03L75.23-8.03Q76.99-12.22 76.99-17.28L76.99-17.28L76.99-26.05L76.99-26.05Q75.90-27.20 74.46-27.90L74.46-27.90L74.46-27.90Q73.02-28.61 71.36-28.61L71.36-28.61ZM111.10-32.58L111.10-32.58Q114.56-32.58 116.86-30.72L116.86-30.72L116.86-30.72Q119.17-28.86 119.17-25.22L119.17-25.22L119.17-25.22Q119.17-22.27 116-18.66L116-18.66L116-18.66Q112.83-15.04 108.58-12.03L108.58-12.03L108.58-12.03Q104.32-9.02 101.31-7.81L101.31-7.81L101.31-7.81Q102.91-5.25 104.96-4.26L104.96-4.26L104.96-4.26Q107.01-3.26 109.76-3.26L109.76-3.26L109.76-3.26Q112.83-3.26 115.87-4.83L115.87-4.83L115.87-4.83Q118.91-6.40 120.90-8.90L120.90-8.90L121.66-7.55L121.66-7.55Q118.53-3.52 115.01-1.38L115.01-1.38L115.01-1.38Q111.49 0.77 106.37 0.77L106.37 0.77L106.37 0.77Q102.46 0.77 99.39-1.15L99.39-1.15L99.39-1.15Q96.32-3.07 94.59-6.30L94.59-6.30L94.59-6.30Q92.86-9.54 92.86-13.31L92.86-13.31L92.86-13.31Q92.86-18.05 95.42-22.53L95.42-22.53L95.42-22.53Q97.98-27.01 102.21-29.79L102.21-29.79L102.21-29.79Q106.43-32.58 111.10-32.58L111.10-32.58ZM107.78-28.54L107.78-28.54Q104.96-28.54 102.75-26.75L102.75-26.75L102.75-26.75Q100.54-24.96 99.30-22.14L99.30-22.14L99.30-22.14Q98.05-19.33 98.05-16.32L98.05-16.32L98.05-16.32Q98.05-12.35 99.90-9.54L99.90-9.54L99.90-9.54Q102.59-10.75 105.73-13.22L105.73-13.22L105.73-13.22Q108.86-15.68 111.04-18.56L111.04-18.56L111.04-18.56Q113.22-21.44 113.22-23.81L113.22-23.81L113.22-23.81Q113.22-28.54 107.78-28.54L107.78-28.54ZM141.06-24.19L141.06-24.19Q138.18-21.18 136.10-16.35L136.10-16.35L136.10-16.35Q134.02-11.52 134.02-7.55L134.02-7.55L134.02-7.55Q134.02-4.10 135.52-1.76L135.52-1.76L135.52-1.76Q137.02 0.58 140.35 0.58L140.35 0.58L140.35 0.58Q143.04 0.58 145.50-0.83L145.50-0.83L145.50-0.83Q147.97-2.24 149.70-4.48L149.70-4.48L148.99-5.44L148.99-5.44Q147.01-4.10 145.09-4.10L145.09-4.10L145.09-4.10Q142.08-4.10 140.54-6.21L140.54-6.21L140.54-6.21Q139.01-8.32 139.01-11.33L139.01-11.33L139.01-11.33Q139.01-16.19 141.50-20.54L141.50-20.54L141.50-20.54Q144-24.90 147.84-28.99L147.84-28.99L146.82-29.89L146.82-29.89Q142.34-27.07 138.62-27.07L138.62-27.07L138.62-27.07Q136.45-27.07 134.66-29.02L134.66-29.02L134.66-29.02Q132.86-30.98 131.90-33.34L131.90-33.34L126.72-27.52L126.72-27.52Q127.17-26.24 129.15-24.58L129.15-24.58L124.86-15.62L127.23-14.53L131.39-23.68L131.39-23.68Q132.48-23.23 133.18-23.10L133.18-23.10L133.18-23.10Q133.89-22.98 135.10-22.98L135.10-22.98L135.10-22.98Q138.24-22.98 140.86-24.38L140.86-24.38L141.06-24.19ZM163.20-59.14L163.20-5.38L163.20-5.38Q163.20-4.61 163.65-3.90L163.65-3.90L163.65-3.90Q164.10-3.20 165.18-3.20L165.18-3.20L165.18-3.20Q166.08-3.20 167.07-4L167.07-4L167.07-4Q168.06-4.80 168.58-5.70L168.58-5.70L169.66-4.74L169.66-4.74Q168.58-2.62 166.66-1.15L166.66-1.15L166.66-1.15Q164.74 0.32 162.82 0.32L162.82 0.32L162.82 0.32Q157.44 0.32 157.44-6.14L157.44-6.14L157.44-56.70L163.20-59.14ZM201.66-32.90L201.66-3.46L201.66-3.46Q201.66 2.56 199.26 7.81L199.26 7.81L199.26 7.81Q196.86 13.06 192.90 16.19L192.90 16.19L192.90 16.19Q188.93 19.33 184.45 19.33L184.45 19.33L184.45 19.33Q182.72 19.33 181.18 18.82L181.18 18.82L181.18 18.82Q179.65 18.30 177.98 17.09L177.98 17.09L182.46 11.39L182.46 11.39Q183.81 12.74 185.63 13.57L185.63 13.57L185.63 13.57Q187.46 14.40 189.06 14.40L189.06 14.40L189.06 14.40Q191.04 14.40 192.64 12.03L192.64 12.03L192.64 12.03Q194.24 9.66 195.17 5.50L195.17 5.50L195.17 5.50Q196.10 1.34 196.10-3.90L196.10-3.90L196.10-3.90Q196.10-15.81 196.16-19.20L196.16-19.20L196.16-23.04L195.78-23.04L195.78-23.04Q190.53 0.77 182.14 0.77L182.14 0.77L182.14 0.77Q180.29 0.77 179.39 0.03L179.39 0.03L179.39 0.03Q178.50-0.70 178.18-2.62L178.18-2.62L178.18-2.62Q177.86-4.54 177.86-8.45L177.86-8.45L177.86-26.50L177.86-26.50Q177.86-27.52 177.34-28.22L177.34-28.22L177.34-28.22Q176.83-28.93 176.06-28.93L176.06-28.93L176.06-28.93Q174.46-28.93 172.67-26.30L172.67-26.30L171.65-27.33L171.65-27.33Q173.06-30.34 174.43-31.42L174.43-31.42L174.43-31.42Q175.81-32.51 178.43-32.51L178.43-32.51L178.43-32.51Q180.99-32.51 182.27-30.88L182.27-30.88L182.27-30.88Q183.55-29.25 183.55-26.11L183.55-26.11L183.55-8.64L183.55-8.64Q183.55-6.27 184.90-6.27L184.90-6.27L184.90-6.27Q186.50-6.27 188.99-10.62L188.99-10.62L188.99-10.62Q191.49-14.98 193.41-20.70L193.41-20.70L193.41-20.70Q195.33-26.43 195.33-30.02L195.33-30.02L201.66-32.90ZM234.43-46.72L234.43-46.72Q238.53-46.72 241.02-44.42L241.02-44.42L241.02-44.42Q243.52-42.11 243.52-38.40L243.52-38.40L243.52-38.40Q243.52-35.46 241.95-32.32L241.95-32.32L241.95-32.32Q240.38-29.18 237.82-26.82L237.82-26.82L237.82-26.82Q235.26-24.45 232.45-23.62L232.45-23.62L231.81-24.77L231.81-24.77Q234.56-25.98 236.26-28.67L236.26-28.67L236.26-28.67Q237.95-31.36 237.95-34.37L237.95-34.37L237.95-34.37Q237.95-38.21 235.65-40.54L235.65-40.54L235.65-40.54Q233.34-42.88 229.50-42.88L229.50-42.88L229.50-42.88Q225.66-42.88 222.27-40.13L222.27-40.13L222.27-40.13Q218.88-37.38 216.83-32.80L216.83-32.80L216.83-32.80Q214.78-28.22 214.78-23.04L214.78-23.04L214.78-23.04Q214.78-17.41 216.51-13.12L216.51-13.12L216.51-13.12Q218.24-8.83 221.41-6.50L221.41-6.50L221.41-6.50Q224.58-4.16 228.67-4.16L228.67-4.16L228.67-4.16Q231.74-4.16 234.69-5.47L234.69-5.47L234.69-5.47Q237.63-6.78 240.06-9.28L240.06-9.28L241.47-7.87L241.47-7.87Q234.69 0.70 225.41 0.70L225.41 0.70L225.41 0.70Q220.22 0.70 216.45-1.86L216.45-1.86L216.45-1.86Q212.67-4.42 210.66-8.80L210.66-8.80L210.66-8.80Q208.64-13.18 208.64-18.56L208.64-18.56L208.64-18.56Q208.64-26.43 212.13-32.86L212.13-32.86L212.13-32.86Q215.62-39.30 221.57-43.01L221.57-43.01L221.57-43.01Q227.52-46.72 234.43-46.72L234.43-46.72ZM263.81-32L263.81-32Q266.94-32 269.73-30.66L269.73-30.66L269.73-30.66Q272.51-29.31 273.79-26.56L273.79-26.56L269.18-24.06L269.18-24.06Q268.16-25.54 266.37-26.72L266.37-26.72L266.37-26.72Q264.58-27.90 262.53-27.90L262.53-27.90L262.53-27.90Q259.26-27.90 256.83-26.21L256.83-26.21L256.83-26.21Q254.40-24.51 253.12-21.63L253.12-21.63L253.12-21.63Q251.84-18.75 251.84-15.23L251.84-15.23L251.84-15.23Q251.84-10.18 253.57-7.01L253.57-7.01L253.57-7.01Q255.30-3.84 259.01-3.84L259.01-3.84L259.01-3.84Q264.26-3.84 266.24-8.06L266.24-8.06L266.24-8.06Q268.22-12.29 268.22-17.28L268.22-17.28L268.22-20.16L273.86-22.53L273.86-5.70L273.86-5.70Q273.86-4.86 274.30-4.10L274.30-4.10L274.30-4.10Q274.75-3.33 275.65-3.33L275.65-3.33L275.65-3.33Q277.50-3.33 279.04-5.89L279.04-5.89L280-4.86L280-4.86Q279.23-2.69 277.31-1.18L277.31-1.18L277.31-1.18Q275.39 0.32 273.47 0.32L273.47 0.32L273.47 0.32Q270.72 0.32 269.41-1.73L269.41-1.73L269.41-1.73Q268.10-3.78 268.10-7.17L268.10-7.17L267.97-7.17L267.97-7.17Q266.37-3.78 263.65-1.50L263.65-1.50L263.65-1.50Q260.93 0.77 257.92 0.77L257.92 0.77L257.92 0.77Q252.48 0.77 249.70-2.98L249.70-2.98L249.70-2.98Q246.91-6.72 246.91-12.99L246.91-12.99L246.91-12.99Q246.91-17.98 249.15-22.37L249.15-22.37L249.15-22.37Q251.39-26.75 255.26-29.38L255.26-29.38L255.26-29.38Q259.14-32 263.81-32L263.81-32ZM298.24-24.19L298.24-24.19Q295.36-21.18 293.28-16.35L293.28-16.35L293.28-16.35Q291.20-11.52 291.20-7.55L291.20-7.55L291.20-7.55Q291.20-4.10 292.70-1.76L292.70-1.76L292.70-1.76Q294.21 0.58 297.54 0.58L297.54 0.58L297.54 0.58Q300.22 0.58 302.69-0.83L302.69-0.83L302.69-0.83Q305.15-2.24 306.88-4.48L306.88-4.48L306.18-5.44L306.18-5.44Q304.19-4.10 302.27-4.10L302.27-4.10L302.27-4.10Q299.26-4.10 297.73-6.21L297.73-6.21L297.73-6.21Q296.19-8.32 296.19-11.33L296.19-11.33L296.19-11.33Q296.19-16.19 298.69-20.54L298.69-20.54L298.69-20.54Q301.18-24.90 305.02-28.99L305.02-28.99L304.00-29.89L304.00-29.89Q299.52-27.07 295.81-27.07L295.81-27.07L295.81-27.07Q293.63-27.07 291.84-29.02L291.84-29.02L291.84-29.02Q290.05-30.98 289.09-33.34L289.09-33.34L283.90-27.52L283.90-27.52Q284.35-26.24 286.34-24.58L286.34-24.58L282.05-15.62L284.42-14.53L288.58-23.68L288.58-23.68Q289.66-23.23 290.37-23.10L290.37-23.10L290.37-23.10Q291.07-22.98 292.29-22.98L292.29-22.98L292.29-22.98Q295.42-22.98 298.05-24.38L298.05-24.38L298.24-24.19ZM329.86-32.58L329.86-32.58Q333.31-32.58 335.62-30.72L335.62-30.72L335.62-30.72Q337.92-28.86 337.92-25.22L337.92-25.22L337.92-25.22Q337.92-22.27 334.75-18.66L334.75-18.66L334.75-18.66Q331.58-15.04 327.33-12.03L327.33-12.03L327.33-12.03Q323.07-9.02 320.06-7.81L320.06-7.81L320.06-7.81Q321.66-5.25 323.71-4.26L323.71-4.26L323.71-4.26Q325.76-3.26 328.51-3.26L328.51-3.26L328.51-3.26Q331.58-3.26 334.62-4.83L334.62-4.83L334.62-4.83Q337.66-6.40 339.65-8.90L339.65-8.90L340.42-7.55L340.42-7.55Q337.28-3.52 333.76-1.38L333.76-1.38L333.76-1.38Q330.24 0.77 325.12 0.77L325.12 0.77L325.12 0.77Q321.22 0.77 318.14-1.15L318.14-1.15L318.14-1.15Q315.07-3.07 313.34-6.30L313.34-6.30L313.34-6.30Q311.62-9.54 311.62-13.31L311.62-13.31L311.62-13.31Q311.62-18.05 314.18-22.53L314.18-22.53L314.18-22.53Q316.74-27.01 320.96-29.79L320.96-29.79L320.96-29.79Q325.18-32.58 329.86-32.58L329.86-32.58ZM326.53-28.54L326.53-28.54Q323.71-28.54 321.50-26.75L321.50-26.75L321.50-26.75Q319.30-24.96 318.05-22.14L318.05-22.14L318.05-22.14Q316.80-19.33 316.80-16.32L316.80-16.32L316.80-16.32Q316.80-12.35 318.66-9.54L318.66-9.54L318.66-9.54Q321.34-10.75 324.48-13.22L324.48-13.22L324.48-13.22Q327.62-15.68 329.79-18.56L329.79-18.56L329.79-18.56Q331.97-21.44 331.97-23.81L331.97-23.81L331.97-23.81Q331.97-28.54 326.53-28.54L326.53-28.54Z" fill="url(#editing-shiny-gradient)"></path></g></g><g filter="url(#editing-shiny2)"><g transform="translate(78.34995746612549, 114.23500537872314)"><path d="M21.12-32.58L21.12-32.58Q24.58-32.58 26.88-30.72L26.88-30.72L26.88-30.72Q29.18-28.86 29.18-25.22L29.18-25.22L29.18-25.22Q29.18-22.27 26.02-18.66L26.02-18.66L26.02-18.66Q22.85-15.04 18.59-12.03L18.59-12.03L18.59-12.03Q14.34-9.02 11.33-7.81L11.33-7.81L11.33-7.81Q12.93-5.25 14.98-4.26L14.98-4.26L14.98-4.26Q17.02-3.26 19.78-3.26L19.78-3.26L19.78-3.26Q22.85-3.26 25.89-4.83L25.89-4.83L25.89-4.83Q28.93-6.40 30.91-8.90L30.91-8.90L31.68-7.55L31.68-7.55Q28.54-3.52 25.02-1.38L25.02-1.38L25.02-1.38Q21.50 0.77 16.38 0.77L16.38 0.77L16.38 0.77Q12.48 0.77 9.41-1.15L9.41-1.15L9.41-1.15Q6.34-3.07 4.61-6.30L4.61-6.30L4.61-6.30Q2.88-9.54 2.88-13.31L2.88-13.31L2.88-13.31Q2.88-18.05 5.44-22.53L5.44-22.53L5.44-22.53Q8-27.01 12.22-29.79L12.22-29.79L12.22-29.79Q16.45-32.58 21.12-32.58L21.12-32.58ZM17.79-28.54L17.79-28.54Q14.98-28.54 12.77-26.75L12.77-26.75L12.77-26.75Q10.56-24.96 9.31-22.14L9.31-22.14L9.31-22.14Q8.06-19.33 8.06-16.32L8.06-16.32L8.06-16.32Q8.06-12.35 9.92-9.54L9.92-9.54L9.92-9.54Q12.61-10.75 15.74-13.22L15.74-13.22L15.74-13.22Q18.88-15.68 21.06-18.56L21.06-18.56L21.06-18.56Q23.23-21.44 23.23-23.81L23.23-23.81L23.23-23.81Q23.23-28.54 17.79-28.54L17.79-28.54ZM45.06-59.14L45.06-5.38L45.06-5.38Q45.06-4.61 45.50-3.90L45.50-3.90L45.50-3.90Q45.95-3.20 47.04-3.20L47.04-3.20L47.04-3.20Q47.94-3.20 48.93-4L48.93-4L48.93-4Q49.92-4.80 50.43-5.70L50.43-5.70L51.52-4.74L51.52-4.74Q50.43-2.62 48.51-1.15L48.51-1.15L48.51-1.15Q46.59 0.32 44.67 0.32L44.67 0.32L44.67 0.32Q39.30 0.32 39.30-6.14L39.30-6.14L39.30-56.70L45.06-59.14ZM83.01-59.14L83.01-5.70L83.01-5.70Q83.01-4.80 83.42-4.06L83.42-4.06L83.42-4.06Q83.84-3.33 84.74-3.33L84.74-3.33L84.74-3.33Q85.63-3.33 86.53-4.13L86.53-4.13L86.53-4.13Q87.42-4.93 87.87-5.89L87.87-5.89L89.09-4.86L89.09-4.86Q88.06-2.69 86.18-1.18L86.18-1.18L86.18-1.18Q84.29 0.32 82.50 0.32L82.50 0.32L82.50 0.32Q79.55 0.32 78.21-1.34L78.21-1.34L78.21-1.34Q76.86-3.01 76.93-7.10L76.93-7.10L76.67-7.10L76.67-7.10Q72.77 0.77 67.14 0.77L67.14 0.77L67.14 0.77Q61.57 0.77 58.59-3.10L58.59-3.10L58.59-3.10Q55.62-6.98 55.62-12.80L55.62-12.80L55.62-12.80Q55.62-17.41 57.60-21.95L57.60-21.95L57.60-21.95Q59.58-26.50 63.26-29.44L63.26-29.44L63.26-29.44Q66.94-32.38 71.74-32.38L71.74-32.38L71.74-32.38Q74.75-32.38 76.99-30.85L76.99-30.85L76.99-56.70L83.01-59.14ZM71.36-28.61L71.36-28.61Q67.78-28.61 65.44-26.37L65.44-26.37L65.44-26.37Q63.10-24.13 62.02-20.96L62.02-20.96L62.02-20.96Q60.93-17.79 60.93-15.04L60.93-15.04L60.93-15.04Q60.93-12.86 61.70-10.24L61.70-10.24L61.70-10.24Q62.46-7.62 64.19-5.73L64.19-5.73L64.19-5.73Q65.92-3.84 68.61-3.84L68.61-3.84L68.61-3.84Q73.47-3.84 75.23-8.03L75.23-8.03L75.23-8.03Q76.99-12.22 76.99-17.28L76.99-17.28L76.99-26.05L76.99-26.05Q75.90-27.20 74.46-27.90L74.46-27.90L74.46-27.90Q73.02-28.61 71.36-28.61L71.36-28.61ZM111.10-32.58L111.10-32.58Q114.56-32.58 116.86-30.72L116.86-30.72L116.86-30.72Q119.17-28.86 119.17-25.22L119.17-25.22L119.17-25.22Q119.17-22.27 116-18.66L116-18.66L116-18.66Q112.83-15.04 108.58-12.03L108.58-12.03L108.58-12.03Q104.32-9.02 101.31-7.81L101.31-7.81L101.31-7.81Q102.91-5.25 104.96-4.26L104.96-4.26L104.96-4.26Q107.01-3.26 109.76-3.26L109.76-3.26L109.76-3.26Q112.83-3.26 115.87-4.83L115.87-4.83L115.87-4.83Q118.91-6.40 120.90-8.90L120.90-8.90L121.66-7.55L121.66-7.55Q118.53-3.52 115.01-1.38L115.01-1.38L115.01-1.38Q111.49 0.77 106.37 0.77L106.37 0.77L106.37 0.77Q102.46 0.77 99.39-1.15L99.39-1.15L99.39-1.15Q96.32-3.07 94.59-6.30L94.59-6.30L94.59-6.30Q92.86-9.54 92.86-13.31L92.86-13.31L92.86-13.31Q92.86-18.05 95.42-22.53L95.42-22.53L95.42-22.53Q97.98-27.01 102.21-29.79L102.21-29.79L102.21-29.79Q106.43-32.58 111.10-32.58L111.10-32.58ZM107.78-28.54L107.78-28.54Q104.96-28.54 102.75-26.75L102.75-26.75L102.75-26.75Q100.54-24.96 99.30-22.14L99.30-22.14L99.30-22.14Q98.05-19.33 98.05-16.32L98.05-16.32L98.05-16.32Q98.05-12.35 99.90-9.54L99.90-9.54L99.90-9.54Q102.59-10.75 105.73-13.22L105.73-13.22L105.73-13.22Q108.86-15.68 111.04-18.56L111.04-18.56L111.04-18.56Q113.22-21.44 113.22-23.81L113.22-23.81L113.22-23.81Q113.22-28.54 107.78-28.54L107.78-28.54ZM141.06-24.19L141.06-24.19Q138.18-21.18 136.10-16.35L136.10-16.35L136.10-16.35Q134.02-11.52 134.02-7.55L134.02-7.55L134.02-7.55Q134.02-4.10 135.52-1.76L135.52-1.76L135.52-1.76Q137.02 0.58 140.35 0.58L140.35 0.58L140.35 0.58Q143.04 0.58 145.50-0.83L145.50-0.83L145.50-0.83Q147.97-2.24 149.70-4.48L149.70-4.48L148.99-5.44L148.99-5.44Q147.01-4.10 145.09-4.10L145.09-4.10L145.09-4.10Q142.08-4.10 140.54-6.21L140.54-6.21L140.54-6.21Q139.01-8.32 139.01-11.33L139.01-11.33L139.01-11.33Q139.01-16.19 141.50-20.54L141.50-20.54L141.50-20.54Q144-24.90 147.84-28.99L147.84-28.99L146.82-29.89L146.82-29.89Q142.34-27.07 138.62-27.07L138.62-27.07L138.62-27.07Q136.45-27.07 134.66-29.02L134.66-29.02L134.66-29.02Q132.86-30.98 131.90-33.34L131.90-33.34L126.72-27.52L126.72-27.52Q127.17-26.24 129.15-24.58L129.15-24.58L124.86-15.62L127.23-14.53L131.39-23.68L131.39-23.68Q132.48-23.23 133.18-23.10L133.18-23.10L133.18-23.10Q133.89-22.98 135.10-22.98L135.10-22.98L135.10-22.98Q138.24-22.98 140.86-24.38L140.86-24.38L141.06-24.19ZM163.20-59.14L163.20-5.38L163.20-5.38Q163.20-4.61 163.65-3.90L163.65-3.90L163.65-3.90Q164.10-3.20 165.18-3.20L165.18-3.20L165.18-3.20Q166.08-3.20 167.07-4L167.07-4L167.07-4Q168.06-4.80 168.58-5.70L168.58-5.70L169.66-4.74L169.66-4.74Q168.58-2.62 166.66-1.15L166.66-1.15L166.66-1.15Q164.74 0.32 162.82 0.32L162.82 0.32L162.82 0.32Q157.44 0.32 157.44-6.14L157.44-6.14L157.44-56.70L163.20-59.14ZM201.66-32.90L201.66-3.46L201.66-3.46Q201.66 2.56 199.26 7.81L199.26 7.81L199.26 7.81Q196.86 13.06 192.90 16.19L192.90 16.19L192.90 16.19Q188.93 19.33 184.45 19.33L184.45 19.33L184.45 19.33Q182.72 19.33 181.18 18.82L181.18 18.82L181.18 18.82Q179.65 18.30 177.98 17.09L177.98 17.09L182.46 11.39L182.46 11.39Q183.81 12.74 185.63 13.57L185.63 13.57L185.63 13.57Q187.46 14.40 189.06 14.40L189.06 14.40L189.06 14.40Q191.04 14.40 192.64 12.03L192.64 12.03L192.64 12.03Q194.24 9.66 195.17 5.50L195.17 5.50L195.17 5.50Q196.10 1.34 196.10-3.90L196.10-3.90L196.10-3.90Q196.10-15.81 196.16-19.20L196.16-19.20L196.16-23.04L195.78-23.04L195.78-23.04Q190.53 0.77 182.14 0.77L182.14 0.77L182.14 0.77Q180.29 0.77 179.39 0.03L179.39 0.03L179.39 0.03Q178.50-0.70 178.18-2.62L178.18-2.62L178.18-2.62Q177.86-4.54 177.86-8.45L177.86-8.45L177.86-26.50L177.86-26.50Q177.86-27.52 177.34-28.22L177.34-28.22L177.34-28.22Q176.83-28.93 176.06-28.93L176.06-28.93L176.06-28.93Q174.46-28.93 172.67-26.30L172.67-26.30L171.65-27.33L171.65-27.33Q173.06-30.34 174.43-31.42L174.43-31.42L174.43-31.42Q175.81-32.51 178.43-32.51L178.43-32.51L178.43-32.51Q180.99-32.51 182.27-30.88L182.27-30.88L182.27-30.88Q183.55-29.25 183.55-26.11L183.55-26.11L183.55-8.64L183.55-8.64Q183.55-6.27 184.90-6.27L184.90-6.27L184.90-6.27Q186.50-6.27 188.99-10.62L188.99-10.62L188.99-10.62Q191.49-14.98 193.41-20.70L193.41-20.70L193.41-20.70Q195.33-26.43 195.33-30.02L195.33-30.02L201.66-32.90ZM234.43-46.72L234.43-46.72Q238.53-46.72 241.02-44.42L241.02-44.42L241.02-44.42Q243.52-42.11 243.52-38.40L243.52-38.40L243.52-38.40Q243.52-35.46 241.95-32.32L241.95-32.32L241.95-32.32Q240.38-29.18 237.82-26.82L237.82-26.82L237.82-26.82Q235.26-24.45 232.45-23.62L232.45-23.62L231.81-24.77L231.81-24.77Q234.56-25.98 236.26-28.67L236.26-28.67L236.26-28.67Q237.95-31.36 237.95-34.37L237.95-34.37L237.95-34.37Q237.95-38.21 235.65-40.54L235.65-40.54L235.65-40.54Q233.34-42.88 229.50-42.88L229.50-42.88L229.50-42.88Q225.66-42.88 222.27-40.13L222.27-40.13L222.27-40.13Q218.88-37.38 216.83-32.80L216.83-32.80L216.83-32.80Q214.78-28.22 214.78-23.04L214.78-23.04L214.78-23.04Q214.78-17.41 216.51-13.12L216.51-13.12L216.51-13.12Q218.24-8.83 221.41-6.50L221.41-6.50L221.41-6.50Q224.58-4.16 228.67-4.16L228.67-4.16L228.67-4.16Q231.74-4.16 234.69-5.47L234.69-5.47L234.69-5.47Q237.63-6.78 240.06-9.28L240.06-9.28L241.47-7.87L241.47-7.87Q234.69 0.70 225.41 0.70L225.41 0.70L225.41 0.70Q220.22 0.70 216.45-1.86L216.45-1.86L216.45-1.86Q212.67-4.42 210.66-8.80L210.66-8.80L210.66-8.80Q208.64-13.18 208.64-18.56L208.64-18.56L208.64-18.56Q208.64-26.43 212.13-32.86L212.13-32.86L212.13-32.86Q215.62-39.30 221.57-43.01L221.57-43.01L221.57-43.01Q227.52-46.72 234.43-46.72L234.43-46.72ZM263.81-32L263.81-32Q266.94-32 269.73-30.66L269.73-30.66L269.73-30.66Q272.51-29.31 273.79-26.56L273.79-26.56L269.18-24.06L269.18-24.06Q268.16-25.54 266.37-26.72L266.37-26.72L266.37-26.72Q264.58-27.90 262.53-27.90L262.53-27.90L262.53-27.90Q259.26-27.90 256.83-26.21L256.83-26.21L256.83-26.21Q254.40-24.51 253.12-21.63L253.12-21.63L253.12-21.63Q251.84-18.75 251.84-15.23L251.84-15.23L251.84-15.23Q251.84-10.18 253.57-7.01L253.57-7.01L253.57-7.01Q255.30-3.84 259.01-3.84L259.01-3.84L259.01-3.84Q264.26-3.84 266.24-8.06L266.24-8.06L266.24-8.06Q268.22-12.29 268.22-17.28L268.22-17.28L268.22-20.16L273.86-22.53L273.86-5.70L273.86-5.70Q273.86-4.86 274.30-4.10L274.30-4.10L274.30-4.10Q274.75-3.33 275.65-3.33L275.65-3.33L275.65-3.33Q277.50-3.33 279.04-5.89L279.04-5.89L280-4.86L280-4.86Q279.23-2.69 277.31-1.18L277.31-1.18L277.31-1.18Q275.39 0.32 273.47 0.32L273.47 0.32L273.47 0.32Q270.72 0.32 269.41-1.73L269.41-1.73L269.41-1.73Q268.10-3.78 268.10-7.17L268.10-7.17L267.97-7.17L267.97-7.17Q266.37-3.78 263.65-1.50L263.65-1.50L263.65-1.50Q260.93 0.77 257.92 0.77L257.92 0.77L257.92 0.77Q252.48 0.77 249.70-2.98L249.70-2.98L249.70-2.98Q246.91-6.72 246.91-12.99L246.91-12.99L246.91-12.99Q246.91-17.98 249.15-22.37L249.15-22.37L249.15-22.37Q251.39-26.75 255.26-29.38L255.26-29.38L255.26-29.38Q259.14-32 263.81-32L263.81-32ZM298.24-24.19L298.24-24.19Q295.36-21.18 293.28-16.35L293.28-16.35L293.28-16.35Q291.20-11.52 291.20-7.55L291.20-7.55L291.20-7.55Q291.20-4.10 292.70-1.76L292.70-1.76L292.70-1.76Q294.21 0.58 297.54 0.58L297.54 0.58L297.54 0.58Q300.22 0.58 302.69-0.83L302.69-0.83L302.69-0.83Q305.15-2.24 306.88-4.48L306.88-4.48L306.18-5.44L306.18-5.44Q304.19-4.10 302.27-4.10L302.27-4.10L302.27-4.10Q299.26-4.10 297.73-6.21L297.73-6.21L297.73-6.21Q296.19-8.32 296.19-11.33L296.19-11.33L296.19-11.33Q296.19-16.19 298.69-20.54L298.69-20.54L298.69-20.54Q301.18-24.90 305.02-28.99L305.02-28.99L304.00-29.89L304.00-29.89Q299.52-27.07 295.81-27.07L295.81-27.07L295.81-27.07Q293.63-27.07 291.84-29.02L291.84-29.02L291.84-29.02Q290.05-30.98 289.09-33.34L289.09-33.34L283.90-27.52L283.90-27.52Q284.35-26.24 286.34-24.58L286.34-24.58L282.05-15.62L284.42-14.53L288.58-23.68L288.58-23.68Q289.66-23.23 290.37-23.10L290.37-23.10L290.37-23.10Q291.07-22.98 292.29-22.98L292.29-22.98L292.29-22.98Q295.42-22.98 298.05-24.38L298.05-24.38L298.24-24.19ZM329.86-32.58L329.86-32.58Q333.31-32.58 335.62-30.72L335.62-30.72L335.62-30.72Q337.92-28.86 337.92-25.22L337.92-25.22L337.92-25.22Q337.92-22.27 334.75-18.66L334.75-18.66L334.75-18.66Q331.58-15.04 327.33-12.03L327.33-12.03L327.33-12.03Q323.07-9.02 320.06-7.81L320.06-7.81L320.06-7.81Q321.66-5.25 323.71-4.26L323.71-4.26L323.71-4.26Q325.76-3.26 328.51-3.26L328.51-3.26L328.51-3.26Q331.58-3.26 334.62-4.83L334.62-4.83L334.62-4.83Q337.66-6.40 339.65-8.90L339.65-8.90L340.42-7.55L340.42-7.55Q337.28-3.52 333.76-1.38L333.76-1.38L333.76-1.38Q330.24 0.77 325.12 0.77L325.12 0.77L325.12 0.77Q321.22 0.77 318.14-1.15L318.14-1.15L318.14-1.15Q315.07-3.07 313.34-6.30L313.34-6.30L313.34-6.30Q311.62-9.54 311.62-13.31L311.62-13.31L311.62-13.31Q311.62-18.05 314.18-22.53L314.18-22.53L314.18-22.53Q316.74-27.01 320.96-29.79L320.96-29.79L320.96-29.79Q325.18-32.58 329.86-32.58L329.86-32.58ZM326.53-28.54L326.53-28.54Q323.71-28.54 321.50-26.75L321.50-26.75L321.50-26.75Q319.30-24.96 318.05-22.14L318.05-22.14L318.05-22.14Q316.80-19.33 316.80-16.32L316.80-16.32L316.80-16.32Q316.80-12.35 318.66-9.54L318.66-9.54L318.66-9.54Q321.34-10.75 324.48-13.22L324.48-13.22L324.48-13.22Q327.62-15.68 329.79-18.56L329.79-18.56L329.79-18.56Q331.97-21.44 331.97-23.81L331.97-23.81L331.97-23.81Q331.97-28.54 326.53-28.54L326.53-28.54Z" fill="url(#editing-shiny-gradient2)"></path></g></g><style>text {
  font-size: 64px;
  font-family: Arial Black;
  dominant-baseline: central;
  text-anchor: middle;
}</style></svg>